name rise49.25peak52.1432fall72.8391.mot
datacolumns 19
datarows 30
range 22.77657600000000 22.82491200000000
endheader
time	ground_force1_vx	ground_force1_vy	ground_force1_vz	ground_force1_px	ground_force1_py	ground_force1_pz	ground_force2_vx	ground_force2_vy	ground_force2_vz	ground_force2_px	ground_force2_py	ground_force2_pz	ground_torque1_x	ground_torque1_y	ground_torque1_z	ground_torque2_x	ground_torque2_y	ground_torque2_z	
22.77657600000000	68.20792299999999	787.56577700000003	51.13433200000000	0.35238600000000	0.00000000000000	0.09665500000000	0.00000000000000	0.00000000000000	0.00000000000000	0.00000000000000	0.00000000000000	0.00000000000000	0.00000000000000	21.55108600000000	0.00000000000000	0.00000000000000	0.00000000000000	0.00000000000000	
22.77824800000000	67.70652000000000	790.90886200000000	51.35821200000000	0.35174500000000	0.00000000000000	0.09664100000000	0.00000000000000	0.00000000000000	0.00000000000000	0.00000000000000	0.00000000000000	0.00000000000000	0.00000000000000	21.69639600000000	0.00000000000000	0.00000000000000	0.00000000000000	0.00000000000000	
22.77991400000000	67.18939899999999	794.06695600000000	51.57530500000000	0.35112200000000	0.00000000000000	0.09662700000000	0.00000000000000	0.00000000000000	0.00000000000000	0.00000000000000	0.00000000000000	0.00000000000000	0.00000000000000	21.84042000000000	0.00000000000000	0.00000000000000	0.00000000000000	0.00000000000000	
22.78157900000000	66.65725100000000	797.03784099999996	51.78524000000000	0.35051700000000	0.00000000000000	0.09661200000000	0.00000000000000	0.00000000000000	0.00000000000000	0.00000000000000	0.00000000000000	0.00000000000000	0.00000000000000	21.98285400000000	0.00000000000000	0.00000000000000	0.00000000000000	0.00000000000000	
22.78324500000000	66.11075800000000	799.81958099999997	51.98761000000000	0.34992900000000	0.00000000000000	0.09659700000000	0.00000000000000	0.00000000000000	0.00000000000000	0.00000000000000	0.00000000000000	0.00000000000000	0.00000000000000	22.12336400000000	0.00000000000000	0.00000000000000	0.00000000000000	0.00000000000000	
22.78491300000000	65.55059400000000	802.41053699999998	52.18197600000000	0.34935600000000	0.00000000000000	0.09658100000000	0.00000000000000	0.00000000000000	0.00000000000000	0.00000000000000	0.00000000000000	0.00000000000000	0.00000000000000	22.26158800000000	0.00000000000000	0.00000000000000	0.00000000000000	0.00000000000000	
22.78657500000000	64.97742000000000	804.80937900000004	52.36787000000000	0.34879700000000	0.00000000000000	0.09656500000000	0.00000000000000	0.00000000000000	0.00000000000000	0.00000000000000	0.00000000000000	0.00000000000000	0.00000000000000	22.39714000000000	0.00000000000000	0.00000000000000	0.00000000000000	0.00000000000000	
22.78824300000000	64.39189100000000	807.01509099999998	52.54480100000000	0.34825200000000	0.00000000000000	0.09654700000000	0.00000000000000	0.00000000000000	0.00000000000000	0.00000000000000	0.00000000000000	0.00000000000000	0.00000000000000	22.52961500000000	0.00000000000000	0.00000000000000	0.00000000000000	0.00000000000000	
22.78991200000000	63.79465500000000	809.02698899999996	52.71226300000000	0.34771800000000	0.00000000000000	0.09652900000000	0.00000000000000	0.00000000000000	0.00000000000000	0.00000000000000	0.00000000000000	0.00000000000000	0.00000000000000	22.65858700000000	0.00000000000000	0.00000000000000	0.00000000000000	0.00000000000000	
22.79158200000000	63.18635200000000	810.84472000000005	52.86973700000000	0.34719500000000	0.00000000000000	0.09651000000000	0.00000000000000	0.00000000000000	0.00000000000000	0.00000000000000	0.00000000000000	0.00000000000000	0.00000000000000	22.78362100000000	0.00000000000000	0.00000000000000	0.00000000000000	0.00000000000000	
22.79324800000000	62.56761700000000	812.46827499999995	53.01669500000000	0.34668100000000	0.00000000000000	0.09649100000000	0.00000000000000	0.00000000000000	0.00000000000000	0.00000000000000	0.00000000000000	0.00000000000000	0.00000000000000	22.90426800000000	0.00000000000000	0.00000000000000	0.00000000000000	0.00000000000000	
22.79491500000000	61.93908000000000	813.89798900000005	53.15261100000000	0.34617500000000	0.00000000000000	0.09647000000000	0.00000000000000	0.00000000000000	0.00000000000000	0.00000000000000	0.00000000000000	0.00000000000000	0.00000000000000	23.02007500000000	0.00000000000000	0.00000000000000	0.00000000000000	0.00000000000000	
22.79657500000000	61.30136500000000	815.13454999999999	53.27696000000000	0.34567500000000	0.00000000000000	0.09644900000000	0.00000000000000	0.00000000000000	0.00000000000000	0.00000000000000	0.00000000000000	0.00000000000000	0.00000000000000	23.13058500000000	0.00000000000000	0.00000000000000	0.00000000000000	0.00000000000000	
22.79824400000000	60.65509500000000	816.17899699999998	53.38922800000000	0.34517900000000	0.00000000000000	0.09642700000000	0.00000000000000	0.00000000000000	0.00000000000000	0.00000000000000	0.00000000000000	0.00000000000000	0.00000000000000	23.23534300000000	0.00000000000000	0.00000000000000	0.00000000000000	0.00000000000000	
22.79991200000000	60.00088800000000	817.03272300000003	53.48891200000000	0.34468600000000	0.00000000000000	0.09640500000000	0.00000000000000	0.00000000000000	0.00000000000000	0.00000000000000	0.00000000000000	0.00000000000000	0.00000000000000	23.33389800000000	0.00000000000000	0.00000000000000	0.00000000000000	0.00000000000000	
22.80158100000000	59.33936100000000	817.69747500000005	53.57553100000000	0.34419400000000	0.00000000000000	0.09638200000000	0.00000000000000	0.00000000000000	0.00000000000000	0.00000000000000	0.00000000000000	0.00000000000000	0.00000000000000	23.42580600000000	0.00000000000000	0.00000000000000	0.00000000000000	0.00000000000000	
22.80324900000000	58.67112700000000	818.17535199999998	53.64862400000000	0.34370200000000	0.00000000000000	0.09635800000000	0.00000000000000	0.00000000000000	0.00000000000000	0.00000000000000	0.00000000000000	0.00000000000000	0.00000000000000	23.51063700000000	0.00000000000000	0.00000000000000	0.00000000000000	0.00000000000000	
22.80491000000000	57.99680100000000	818.46879999999999	53.70776000000000	0.34320700000000	0.00000000000000	0.09633300000000	0.00000000000000	0.00000000000000	0.00000000000000	0.00000000000000	0.00000000000000	0.00000000000000	0.00000000000000	23.58797400000000	0.00000000000000	0.00000000000000	0.00000000000000	0.00000000000000	
22.80658100000000	57.31699500000000	818.58060899999998	53.75253800000000	0.34270900000000	0.00000000000000	0.09630700000000	0.00000000000000	0.00000000000000	0.00000000000000	0.00000000000000	0.00000000000000	0.00000000000000	0.00000000000000	23.65741700000000	0.00000000000000	0.00000000000000	0.00000000000000	0.00000000000000	
22.80825900000000	56.63232000000000	818.51390800000001	53.78259300000000	0.34220400000000	0.00000000000000	0.09628100000000	0.00000000000000	0.00000000000000	0.00000000000000	0.00000000000000	0.00000000000000	0.00000000000000	0.00000000000000	23.71858900000000	0.00000000000000	0.00000000000000	0.00000000000000	0.00000000000000	
22.80991300000000	55.94338800000000	818.27215699999999	53.79760000000000	0.34169200000000	0.00000000000000	0.09625500000000	0.00000000000000	0.00000000000000	0.00000000000000	0.00000000000000	0.00000000000000	0.00000000000000	0.00000000000000	23.77113600000000	0.00000000000000	0.00000000000000	0.00000000000000	0.00000000000000	
22.81157500000000	55.25080900000000	817.85913800000003	53.79727400000000	0.34117100000000	0.00000000000000	0.09622700000000	0.00000000000000	0.00000000000000	0.00000000000000	0.00000000000000	0.00000000000000	0.00000000000000	0.00000000000000	23.81473000000000	0.00000000000000	0.00000000000000	0.00000000000000	0.00000000000000	
22.81324000000000	54.55519500000000	817.27894300000003	53.78137600000000	0.34063800000000	0.00000000000000	0.09620000000000	0.00000000000000	0.00000000000000	0.00000000000000	0.00000000000000	0.00000000000000	0.00000000000000	0.00000000000000	23.84907300000000	0.00000000000000	0.00000000000000	0.00000000000000	0.00000000000000	
22.81491200000000	53.85715300000000	816.53596800000003	53.74971300000000	0.34009200000000	0.00000000000000	0.09617100000000	0.00000000000000	0.00000000000000	0.00000000000000	0.00000000000000	0.00000000000000	0.00000000000000	0.00000000000000	23.87389800000000	0.00000000000000	0.00000000000000	0.00000000000000	0.00000000000000	
22.81657600000000	53.15729500000000	815.63489800000002	53.70214300000000	0.33953200000000	0.00000000000000	0.09614300000000	0.00000000000000	0.00000000000000	0.00000000000000	0.00000000000000	0.00000000000000	0.00000000000000	0.00000000000000	23.88897000000000	0.00000000000000	0.00000000000000	0.00000000000000	0.00000000000000	
22.81824600000000	52.45622700000000	814.58069300000000	53.63857300000000	0.33895500000000	0.00000000000000	0.09611300000000	0.00000000000000	0.00000000000000	0.00000000000000	0.00000000000000	0.00000000000000	0.00000000000000	0.00000000000000	23.89409100000000	0.00000000000000	0.00000000000000	0.00000000000000	0.00000000000000	
22.81991500000000	51.75455500000000	813.37857799999995	53.55896200000000	0.33836100000000	0.00000000000000	0.09608400000000	0.00000000000000	0.00000000000000	0.00000000000000	0.00000000000000	0.00000000000000	0.00000000000000	0.00000000000000	23.88909700000000	0.00000000000000	0.00000000000000	0.00000000000000	0.00000000000000	
22.82157900000000	51.05288500000000	812.03402100000005	53.46332400000000	0.33774600000000	0.00000000000000	0.09605400000000	0.00000000000000	0.00000000000000	0.00000000000000	0.00000000000000	0.00000000000000	0.00000000000000	0.00000000000000	23.87386500000000	0.00000000000000	0.00000000000000	0.00000000000000	0.00000000000000	
22.82324300000000	50.35181500000000	810.55272400000001	53.35172400000000	0.33711000000000	0.00000000000000	0.09602500000000	0.00000000000000	0.00000000000000	0.00000000000000	0.00000000000000	0.00000000000000	0.00000000000000	0.00000000000000	23.84830800000000	0.00000000000000	0.00000000000000	0.00000000000000	0.00000000000000	
22.82491200000000	49.65194500000000	808.94060200000001	53.22428300000000	0.33645200000000	0.00000000000000	0.09599500000000	0.00000000000000	0.00000000000000	0.00000000000000	0.00000000000000	0.00000000000000	0.00000000000000	0.00000000000000	23.81238100000000	0.00000000000000	0.00000000000000	0.00000000000000	0.00000000000000	
